<?xml version="1.0" encoding="UTF-8"?>
<svg id="Capa_2" data-name="Capa 2" xmlns="http://www.w3.org/2000/svg" viewBox="0 0 247.97 225.43">
  <defs>
    <style>
      .cls-1 {
        fill: #e6e6e6;
      }
    </style>
  </defs>
  <g id="Capa_1-2" data-name="Capa 1">
    <g>
      <path class="cls-1" d="M84.96,60.5l-12.85-33.49c-2.55-6.64-10.63-9.26-16.52-5.27-15.64,10.56-28.4,24.31-37.74,40-2.3,3.87-.76,8.88,3.35,10.71l41.2,18.35c3.53,1.57,7.67.19,9.56-3.18,3.16-5.65,6.88-11,11.11-15.97,2.63-3.08,3.34-7.36,1.89-11.14Z"/>
      <path class="cls-1" d="M166.29,32.68l7.14-16.04c1.58-3.54-.18-7.68-3.82-9.01C148.63,0,125.56-2.14,102.7,2.26c-3.86.74-6.11,4.8-4.71,8.47l11.91,31.03c1.3,3.39,5.18,4.96,8.5,3.48,1.57-.7,3.17-1.36,4.79-1.98,12.14-4.66,24.62-6.78,36.87-6.63,2.68.03,5.13-1.51,6.22-3.96Z"/>
      <path class="cls-1" d="M200.48,29.66l-4.5,10.09c-.83,1.87.03,4.05,1.91,4.86,21.16,9,39.2,25.28,50.07,47.02-1.01-3.51-2.17-7-3.5-10.48-8.23-21.45-21.68-39.37-38.34-52.86-1.87-1.51-4.67-.83-5.65,1.37Z"/>
      <path class="cls-1" d="M58.87,222.39l16.56-16.56c3.52-3.52,4.07-9.05,1.26-13.16-4.32-6.31-7.98-13.22-10.83-20.67-5.04-13.15-7.11-26.7-6.54-39.93.25-5.79-2.99-11.15-8.28-13.51l-30.99-13.8c-8.85-3.94-18.89,2.09-19.65,11.74-1.45,18.21,1.04,37.03,8.02,55.22,7.9,20.59,20.61,37.93,36.35,51.22,4.14,3.5,10.27,3.28,14.1-.56Z"/>
    </g>
  </g>
</svg>